<svg version="1.1" xmlns="http://www.w3.org/2000/svg" viewBox="0 0 596.0852709975621 728.4506036506905" width="596.0852709975621" height="728.4506036506905">
  <!-- svg-source:excalidraw -->
  
  <defs>
    <style class="style-fonts">
      @font-face {
        font-family: "Virgil";
        src: url("https://excalidraw.com/Virgil.woff2");
      }
      @font-face {
        font-family: "Cascadia";
        src: url("https://excalidraw.com/Cascadia.woff2");
      }
      @font-face {
        font-family: "Assistant";
        src: url("https://excalidraw.com/Assistant-Regular.woff2");
      }
    </style>
    
  </defs>
  <rect x="0" y="0" width="596.0852709975621" height="728.4506036506905" fill="#ffffff"></rect><g transform="translate(10 10) rotate(0 152.5198974609375 25)"><text x="0" y="0" font-family="Virgil, Segoe UI Emoji" font-size="20px" fill="#1e1e1e" text-anchor="start" style="white-space: pre;" direction="ltr" dominant-baseline="text-before-edge">katakanlah kita memiliki array </text><text x="0" y="25" font-family="Virgil, Segoe UI Emoji" font-size="20px" fill="#1e1e1e" text-anchor="start" style="white-space: pre;" direction="ltr" dominant-baseline="text-before-edge">[1, 2, 8, 7]</text></g><g stroke-linecap="round" transform="translate(13.557968341768742 137.2345088639595) rotate(0 10.069335955855763 29.805234429332927)"><path d="M5.03 0 C7.32 0.22, 11.02 -1.73, 15.1 0 C21 -0.41, 19.61 0.11, 20.14 5.03 C21.92 18.16, 21.61 27.88, 20.14 54.58 C20.03 58.36, 16.86 57.9, 15.1 59.61 C11.73 58.24, 11.62 58.32, 5.03 59.61 C4.51 56.76, 1.3 54.92, 0 54.58 C1.16 39.22, -2.76 26.69, 0 5.03 C-3.03 2.13, 2.14 -1.11, 5.03 0" stroke="none" stroke-width="0" fill="#ffffff"></path><path d="M5.03 0 C8.59 0.73, 12.74 0.43, 15.1 0 M5.03 0 C8.93 0.28, 11.64 -0.33, 15.1 0 M15.1 0 C16.83 0.79, 18.19 0.66, 20.14 5.03 M15.1 0 C20.48 1.21, 20.11 2.84, 20.14 5.03 M20.14 5.03 C18.93 22.31, 18.78 39.1, 20.14 54.58 M20.14 5.03 C19.83 23.91, 20.23 41.31, 20.14 54.58 M20.14 54.58 C21.7 58.7, 19.01 58.56, 15.1 59.61 M20.14 54.58 C20.42 57.34, 18.95 61.74, 15.1 59.61 M15.1 59.61 C12.34 59.75, 7.58 59.81, 5.03 59.61 M15.1 59.61 C11.98 59.22, 8.35 60.13, 5.03 59.61 M5.03 59.61 C3.1 59.66, -1 58.92, 0 54.58 M5.03 59.61 C3.68 61.04, -2.07 55.92, 0 54.58 M0 54.58 C-0.17 40.04, -0.24 24.89, 0 5.03 M0 54.58 C-1.09 37.79, -1 23.55, 0 5.03 M0 5.03 C-1.26 1.9, 1.81 1.49, 5.03 0 M0 5.03 C1.59 0.58, 0.95 0.88, 5.03 0" stroke="#1e1e1e" stroke-width="2" fill="none"></path></g><g stroke-linecap="round" transform="translate(59.47414030047082 121.12357133459034) rotate(0 12.083203147026893 37.05515631754906)"><path d="M6.04 0 C12.26 1.36, 16.54 1.88, 18.12 0 C21.93 -0.48, 23.77 0.56, 24.17 6.04 C28 27.35, 23.38 47.14, 24.17 68.07 C27.01 69.82, 22.23 72.77, 18.12 74.11 C15.37 72.53, 9.73 73.43, 6.04 74.11 C-1.38 72.44, 0.65 71.15, 0 68.07 C1.05 45.61, 0.13 20.2, 0 6.04 C2.75 -1.31, 2.21 0.24, 6.04 0" stroke="none" stroke-width="0" fill="#ffffff"></path><path d="M6.04 0 C9.9 0.35, 13.04 -1.12, 18.12 0 M6.04 0 C8.26 -0.04, 11.27 0.35, 18.12 0 M18.12 0 C23.54 -0.95, 23.54 2.78, 24.17 6.04 M18.12 0 C22.54 1.59, 23.51 0.86, 24.17 6.04 M24.17 6.04 C25.44 25, 23.74 43.54, 24.17 68.07 M24.17 6.04 C24.7 21.72, 24.61 36.44, 24.17 68.07 M24.17 68.07 C24.11 72.33, 21.26 73.16, 18.12 74.11 M24.17 68.07 C22.83 70.5, 21.06 72.92, 18.12 74.11 M18.12 74.11 C16.3 73.07, 13.02 73.02, 6.04 74.11 M18.12 74.11 C15 73.91, 11.04 74.07, 6.04 74.11 M6.04 74.11 C0.33 74.36, 0.26 71.48, 0 68.07 M6.04 74.11 C0.39 75.36, 1.77 71.95, 0 68.07 M0 68.07 C1.16 51.73, 1.3 37.15, 0 6.04 M0 68.07 C1.15 53.57, 1.05 39.5, 0 6.04 M0 6.04 C0.06 2.16, 1.8 -1.86, 6.04 0 M0 6.04 C0.57 -0.26, -0.03 1.45, 6.04 0" stroke="#1e1e1e" stroke-width="2" fill="none"></path></g><g stroke-linecap="round" transform="translate(108.61249976504678 86.48505564644665) rotate(0 12.888750023495334 54.777187599855125)"><path d="M6.44 0 C8.21 -0.5, 14.42 -1.24, 19.33 0 C25.98 1.11, 26.65 2.78, 25.78 6.44 C26.45 27.03, 24.36 55.33, 25.78 103.11 C25.09 106.19, 22.96 107.03, 19.33 109.55 C14.61 111.58, 9.31 108.26, 6.44 109.55 C3.13 106.05, 0.39 109.92, 0 103.11 C3.5 74.98, 2.5 41.98, 0 6.44 C2.25 0.77, 4.26 -2.95, 6.44 0" stroke="none" stroke-width="0" fill="#ffffff"></path><path d="M6.44 0 C8.84 -0.21, 10.78 -0.52, 19.33 0 M6.44 0 C10 -0.56, 14.66 0.15, 19.33 0 M19.33 0 C23.18 0, 27.3 0.3, 25.78 6.44 M19.33 0 C23.76 0.15, 23.85 0.05, 25.78 6.44 M25.78 6.44 C25.06 33.22, 25.7 59.43, 25.78 103.11 M25.78 6.44 C25.77 40.7, 26.76 74.19, 25.78 103.11 M25.78 103.11 C24.72 107.32, 24.77 107.86, 19.33 109.55 M25.78 103.11 C25.95 109.42, 23.38 110.04, 19.33 109.55 M19.33 109.55 C15.94 110.02, 13.86 109.11, 6.44 109.55 M19.33 109.55 C15.29 109.81, 10.32 109.62, 6.44 109.55 M6.44 109.55 C2.15 108.42, 0.89 109.25, 0 103.11 M6.44 109.55 C3.35 108.5, 0.67 106.49, 0 103.11 M0 103.11 C0.61 67.72, 0.26 36.38, 0 6.44 M0 103.11 C0.49 74.9, 0.57 47.7, 0 6.44 M0 6.44 C-0.1 0.44, 1.51 1.52, 6.44 0 M0 6.44 C1.52 4.11, 4.07 -1.82, 6.44 0" stroke="#1e1e1e" stroke-width="2" fill="none"></path></g><g stroke-linecap="round" transform="translate(154.52867172374886 113.8736494463742) rotate(0 10.874882832324204 40.27734382342288)"><path d="M5.44 0 C8.37 -0.26, 8.68 -0.68, 16.31 0 C18.72 -1.74, 22.8 2.74, 21.75 5.44 C20.4 23.49, 22.79 50.68, 21.75 75.12 C20.37 81.23, 18.42 81.72, 16.31 80.55 C12.52 82.29, 9.8 80.48, 5.44 80.55 C-1.24 80.18, 1.62 78.43, 0 75.12 C-0.65 56.17, 1.23 33.5, 0 5.44 C-0.91 2.12, 2.85 -0.43, 5.44 0" stroke="none" stroke-width="0" fill="#ffffff"></path><path d="M5.44 0 C7.77 -0.23, 12.19 -0.58, 16.31 0 M5.44 0 C9.5 -0.37, 13.05 0.15, 16.31 0 M16.31 0 C20.9 -1.29, 21.55 3.52, 21.75 5.44 M16.31 0 C19.5 -0.78, 21.32 0.2, 21.75 5.44 M21.75 5.44 C21.95 32.99, 21.5 55.98, 21.75 75.12 M21.75 5.44 C21.77 28.39, 20.23 50.72, 21.75 75.12 M21.75 75.12 C22.88 80.03, 20.51 80.43, 16.31 80.55 M21.75 75.12 C23.19 77.86, 21.29 78.67, 16.31 80.55 M16.31 80.55 C14.11 79.81, 11.52 81.57, 5.44 80.55 M16.31 80.55 C12.33 80.98, 9.52 80.54, 5.44 80.55 M5.44 80.55 C2.32 81.83, 1.7 78.84, 0 75.12 M5.44 80.55 C2.57 80.38, 1.92 78.7, 0 75.12 M0 75.12 C-0.42 52.64, 0.52 30.81, 0 5.44 M0 75.12 C-0.5 49.31, 0.32 22.47, 0 5.44 M0 5.44 C-0.16 3.34, 1.16 -1.42, 5.44 0 M0 5.44 C-0.1 2.03, 1.37 -1.46, 5.44 0" stroke="#1e1e1e" stroke-width="2" fill="none"></path></g><g transform="translate(25.641171488795635 217.78919651080525) rotate(0 2.7099990844726562 12.5)"><text x="0" y="0" font-family="Virgil, Segoe UI Emoji" font-size="20px" fill="#1e1e1e" text-anchor="start" style="white-space: pre;" direction="ltr" dominant-baseline="text-before-edge">1</text></g><g transform="translate(66.72406218868696 216.17810275786837) rotate(0 7.1199951171875 12.5)"><text x="0" y="0" font-family="Virgil, Segoe UI Emoji" font-size="20px" fill="#1e1e1e" text-anchor="start" style="white-space: pre;" direction="ltr" dominant-baseline="text-before-edge">2</text></g><g transform="translate(115.86242165326303 218.5947433872737) rotate(0 7.649993896484375 12.5)"><text x="0" y="0" font-family="Virgil, Segoe UI Emoji" font-size="20px" fill="#1e1e1e" text-anchor="start" style="white-space: pre;" direction="ltr" dominant-baseline="text-before-edge">8</text></g><g transform="translate(163.389687364902 221.81693089314757) rotate(0 5.379997253417969 12.5)"><text x="0" y="0" font-family="Virgil, Segoe UI Emoji" font-size="20px" fill="#1e1e1e" text-anchor="start" style="white-space: pre;" direction="ltr" dominant-baseline="text-before-edge">7</text></g><g transform="translate(238.30554687646838 108.23482131109495) rotate(0 173.88986206054688 37.5)"><text x="0" y="0" font-family="Virgil, Segoe UI Emoji" font-size="20px" fill="#1e1e1e" text-anchor="start" style="white-space: pre;" direction="ltr" dominant-baseline="text-before-edge">kemudian ketika ingin mencari </text><text x="0" y="25" font-family="Virgil, Segoe UI Emoji" font-size="20px" fill="#1e1e1e" text-anchor="start" style="white-space: pre;" direction="ltr" dominant-baseline="text-before-edge">nilai optimal yang dapat dihasilkan </text><text x="0" y="50" font-family="Virgil, Segoe UI Emoji" font-size="20px" fill="#1e1e1e" text-anchor="start" style="white-space: pre;" direction="ltr" dominant-baseline="text-before-edge">pada area water lebar x tinggi ? </text></g><g stroke-linecap="round" transform="translate(22.418983982921645 342.23216551044305) rotate(0 10.069335955855763 29.805234429332927)"><path d="M5.03 0 C7.43 1.24, 11.81 1.43, 15.1 0 C16.46 -3.4, 18.91 3.05, 20.14 5.03 C22.92 18.09, 19.17 28.72, 20.14 54.58 C16.65 59.3, 18.68 58.7, 15.1 59.61 C14.23 60.53, 12.32 59.46, 5.03 59.61 C2.69 57.53, -3.37 58.91, 0 54.58 C2.42 40.36, 3.5 22.33, 0 5.03 C-0.64 1.76, 0.39 -1.79, 5.03 0" stroke="none" stroke-width="0" fill="#ffffff"></path><path d="M5.03 0 C6.52 -0.17, 10.29 -0.59, 15.1 0 M5.03 0 C8.18 -0.52, 11.29 0.04, 15.1 0 M15.1 0 C18.92 1.1, 18.49 1.38, 20.14 5.03 M15.1 0 C20.01 -0.85, 17.94 0.11, 20.14 5.03 M20.14 5.03 C18.8 23.47, 20.67 41.78, 20.14 54.58 M20.14 5.03 C19.75 25.36, 19.39 44.11, 20.14 54.58 M20.14 54.58 C19.27 57.95, 16.73 60.99, 15.1 59.61 M20.14 54.58 C21.57 59.23, 18.47 61.41, 15.1 59.61 M15.1 59.61 C11.34 59.34, 8.5 60.25, 5.03 59.61 M15.1 59.61 C12.37 59.55, 10.12 59.65, 5.03 59.61 M5.03 59.61 C0.88 60.02, -0.44 59.55, 0 54.58 M5.03 59.61 C1.98 58.61, 0.06 56.99, 0 54.58 M0 54.58 C1.31 43.1, -1.49 33.75, 0 5.03 M0 54.58 C-0.45 35.89, 0.72 15.82, 0 5.03 M0 5.03 C-0.98 0.98, 2.18 -1.74, 5.03 0 M0 5.03 C-1.04 3.3, 1.5 -0.63, 5.03 0" stroke="#1e1e1e" stroke-width="2" fill="none"></path></g><g stroke-linecap="round" transform="translate(68.33515594162395 326.1212279810739) rotate(0 12.083203147026893 37.05515631754906)"><path d="M6.04 0 C11.8 1.62, 12.67 -2.21, 18.12 0 C20.92 1.37, 21.16 1.76, 24.17 6.04 C24.15 24.19, 21.56 39.24, 24.17 68.07 C24.38 71.18, 19.3 73.11, 18.12 74.11 C17.05 74.15, 12.61 72.98, 6.04 74.11 C-1.36 75.09, -0.31 69.59, 0 68.07 C2.31 45.09, -1.2 28.97, 0 6.04 C-1.29 0.22, 3.92 -0.09, 6.04 0" stroke="none" stroke-width="0" fill="#ffffff"></path><path d="M6.04 0 C10.26 -0.72, 12.63 -0.23, 18.12 0 M6.04 0 C10.51 0.26, 15.5 0.44, 18.12 0 M18.12 0 C20.51 -0.3, 25.51 1.28, 24.17 6.04 M18.12 0 C19.95 -1.57, 25.46 3.16, 24.17 6.04 M24.17 6.04 C23.95 21.16, 25.55 32.91, 24.17 68.07 M24.17 6.04 C23.38 27.28, 23.57 48.41, 24.17 68.07 M24.17 68.07 C22.44 73.47, 23.4 75.24, 18.12 74.11 M24.17 68.07 C24.17 73.9, 23.19 72.76, 18.12 74.11 M18.12 74.11 C14.82 74.83, 10.3 74.37, 6.04 74.11 M18.12 74.11 C14.99 74.13, 10.51 74.22, 6.04 74.11 M6.04 74.11 C1.58 75.73, 0.26 71.22, 0 68.07 M6.04 74.11 C2.08 73.16, -1.63 71.37, 0 68.07 M0 68.07 C-2 51.71, 1.28 31.69, 0 6.04 M0 68.07 C1.01 51.49, -0.22 36.35, 0 6.04 M0 6.04 C0.5 0.27, 1.11 1.41, 6.04 0 M0 6.04 C-0.18 1.38, 1.09 -0.08, 6.04 0" stroke="#1e1e1e" stroke-width="2" fill="none"></path></g><g stroke-linecap="round" transform="translate(117.4735154061998 291.4827122929302) rotate(0 12.888750023495334 54.777187599855125)"><path d="M6.44 0 C9.94 -2.38, 15.22 0.69, 19.33 0 C20.62 -0.26, 24.22 5, 25.78 6.44 C21.85 43.07, 25.56 76.05, 25.78 103.11 C22.92 106.41, 21.95 112.23, 19.33 109.55 C15.41 108.21, 8.01 110.18, 6.44 109.55 C1.83 107.04, 0.57 109.21, 0 103.11 C-2.03 73.61, -2.68 42.15, 0 6.44 C1.9 2.06, 4.64 0.36, 6.44 0" stroke="none" stroke-width="0" fill="#ffffff"></path><path d="M6.44 0 C10.29 -0.19, 14.76 -0.08, 19.33 0 M6.44 0 C9.36 0.32, 11.45 -0.13, 19.33 0 M19.33 0 C24.97 -0.74, 23.86 0.78, 25.78 6.44 M19.33 0 C24.93 1.15, 23.95 0.32, 25.78 6.44 M25.78 6.44 C27.79 38.67, 26.74 71.39, 25.78 103.11 M25.78 6.44 C24.74 43.32, 24.31 80.87, 25.78 103.11 M25.78 103.11 C27.02 108.54, 23.64 111.12, 19.33 109.55 M25.78 103.11 C26.82 106.06, 23.83 108.89, 19.33 109.55 M19.33 109.55 C15.43 109.94, 12.37 109.59, 6.44 109.55 M19.33 109.55 C15.37 109.69, 11.79 110.08, 6.44 109.55 M6.44 109.55 C2.41 108.68, 0.06 106.58, 0 103.11 M6.44 109.55 C0.52 108.83, -0.14 108.73, 0 103.11 M0 103.11 C2.44 74.81, -0.15 45.45, 0 6.44 M0 103.11 C-1.21 71.39, -0.47 39.49, 0 6.44 M0 6.44 C-0.91 3.56, 1.99 -0.55, 6.44 0 M0 6.44 C-0.93 2.07, 2.7 -0.28, 6.44 0" stroke="#1e1e1e" stroke-width="2" fill="none"></path></g><g stroke-linecap="round" transform="translate(163.38968736490187 318.87130609285776) rotate(0 10.874882832324204 40.27734382342288)"><path d="M5.44 0 C8.92 0.93, 12.1 0.05, 16.31 0 C18.38 2.85, 24.08 0.91, 21.75 5.44 C20.75 29.76, 17.68 54.9, 21.75 75.12 C20.07 81.41, 21.92 83.85, 16.31 80.55 C11.26 80.97, 9.69 79.08, 5.44 80.55 C2.38 82.36, 0.22 81.62, 0 75.12 C-1.06 58.98, 2.13 46.33, 0 5.44 C2.49 2.17, 1.96 3.48, 5.44 0" stroke="none" stroke-width="0" fill="#ffffff"></path><path d="M5.44 0 C8.96 -0.11, 9.69 -0.31, 16.31 0 M5.44 0 C8.53 -0.14, 12.88 -0.26, 16.31 0 M16.31 0 C18.02 -1.37, 22.88 2.81, 21.75 5.44 M16.31 0 C18.11 -1.83, 22.64 2.13, 21.75 5.44 M21.75 5.44 C23.23 30.79, 24.03 55.95, 21.75 75.12 M21.75 5.44 C20.58 27.45, 22.07 48.65, 21.75 75.12 M21.75 75.12 C21.76 80.31, 20.84 79.38, 16.31 80.55 M21.75 75.12 C21.96 78.08, 19.31 81.36, 16.31 80.55 M16.31 80.55 C12.43 80.55, 8.29 81.57, 5.44 80.55 M16.31 80.55 C12.86 81.02, 9.72 80.34, 5.44 80.55 M5.44 80.55 C1.87 79.73, -1.42 78.11, 0 75.12 M5.44 80.55 C1.68 81.88, -0.14 76.85, 0 75.12 M0 75.12 C-1.52 46.8, -0.08 21.68, 0 5.44 M0 75.12 C0.59 59.61, -0.11 46.55, 0 5.44 M0 5.44 C-0.16 1.27, 1.01 -0.07, 5.44 0 M0 5.44 C0.55 1.53, 3.45 1.95, 5.44 0" stroke="#1e1e1e" stroke-width="2" fill="none"></path></g><g transform="translate(34.50218712994865 422.7868531572888) rotate(0 2.7099990844726562 12.5)"><text x="0" y="0" font-family="Virgil, Segoe UI Emoji" font-size="20px" fill="#1e1e1e" text-anchor="start" style="white-space: pre;" direction="ltr" dominant-baseline="text-before-edge">1</text></g><g transform="translate(75.58507782983997 421.17575940435194) rotate(0 7.1199951171875 12.5)"><text x="0" y="0" font-family="Virgil, Segoe UI Emoji" font-size="20px" fill="#1e1e1e" text-anchor="start" style="white-space: pre;" direction="ltr" dominant-baseline="text-before-edge">2</text></g><g transform="translate(124.72343729441604 423.5924000337573) rotate(0 7.649993896484375 12.5)"><text x="0" y="0" font-family="Virgil, Segoe UI Emoji" font-size="20px" fill="#1e1e1e" text-anchor="start" style="white-space: pre;" direction="ltr" dominant-baseline="text-before-edge">8</text></g><g transform="translate(172.2507030060549 426.8145875396311) rotate(0 5.379997253417969 12.5)"><text x="0" y="0" font-family="Virgil, Segoe UI Emoji" font-size="20px" fill="#1e1e1e" text-anchor="start" style="white-space: pre;" direction="ltr" dominant-baseline="text-before-edge">7</text></g><g transform="translate(24.03007773585864 257.26099345775964) rotate(0 199.70986938476557 12.5)"><text x="0" y="0" font-family="Virgil, Segoe UI Emoji" font-size="20px" fill="#1e1e1e" text-anchor="start" style="white-space: pre;" direction="ltr" dominant-baseline="text-before-edge">caranya adalah mencari nilai minimumnya </text></g><g stroke-linecap="round" transform="translate(40.14101526522779 342.64896236341616) rotate(0 62.42988292630548 0.4027734382342203)"><path d="M0.2 0 C43.96 0.42, 89.2 1.63, 124.66 0 C125.83 0.6, 122.4 0.49, 124.86 0.2 C124.9 0.35, 124.83 0.43, 124.86 0.6 C124.78 2.56, 123.47 0.96, 124.66 0.81 C84.42 -1.28, 44.88 0.41, 0.2 0.81 C-1.18 1.22, -1.63 1.24, 0 0.6 C0.02 0.5, -0.04 0.37, 0 0.2 C1.24 1.04, 2.03 -1, 0.2 0" stroke="none" stroke-width="0" fill="#ffffff"></path><path d="M0.2 0 C28.01 -1.07, 57.85 -0.71, 124.66 0 M0.2 0 C34.48 -0.31, 68.69 -0.52, 124.66 0 M124.66 0 C125.12 -0.24, 125.22 -0.41, 124.86 0.2 M124.66 0 C124.9 0.08, 125.47 0.06, 124.86 0.2 M124.86 0.2 C124.87 0.35, 124.87 0.5, 124.86 0.6 M124.86 0.2 C124.86 0.34, 124.86 0.49, 124.86 0.6 M124.86 0.6 C124.42 -0.17, 124.3 0.74, 124.66 0.81 M124.86 0.6 C124.57 0.34, 124.44 0.64, 124.66 0.81 M124.66 0.81 C84.68 0.35, 46.22 0.33, 0.2 0.81 M124.66 0.81 C84.95 -0.17, 44.56 0.12, 0.2 0.81 M0.2 0.81 C0.96 1.73, -0.52 0.25, 0 0.6 M0.2 0.81 C0.17 -0.24, 0.33 1.28, 0 0.6 M0 0.6 C-0.01 0.49, 0.01 0.32, 0 0.2 M0 0.6 C0 0.5, 0 0.4, 0 0.2 M0 0.2 C-0.59 -0.45, 0.15 0.15, 0.2 0 M0 0.2 C1.02 0.82, -0.75 -0.83, 0.2 0" stroke="#1e1e1e" stroke-width="2" fill="none"></path></g><g stroke-linecap="round"><g transform="translate(41.75210901816479 399.0372437162082) rotate(0 60.81878917336854 0)"><path d="M0.63 0.03 C20.82 -0.27, 100.9 -1.06, 120.95 -1.1 M-0.5 -1 C20.1 -1.25, 102.64 -0.47, 123.3 -0.14" stroke="#1e1e1e" stroke-width="2" fill="none"></path></g></g><mask></mask><g stroke-linecap="round" transform="translate(269.7218750587383 344.6488061398483) rotate(0 10.069335955855763 29.805234429332927)"><path d="M5.03 0 C6.97 1.43, 9.01 -0.91, 15.1 0 C15.18 -0.9, 20.4 0.67, 20.14 5.03 C16.85 21.56, 17 30.64, 20.14 54.58 C22.73 55.31, 18.54 57.63, 15.1 59.61 C12.71 61, 7.83 58.76, 5.03 59.61 C2.02 60.2, -0.02 57.91, 0 54.58 C0.95 34.82, -1.54 18.85, 0 5.03 C1.35 4.58, 0.84 -3.03, 5.03 0" stroke="none" stroke-width="0" fill="#ffffff"></path><path d="M5.03 0 C9.31 0.31, 12.04 -0.75, 15.1 0 M5.03 0 C8.39 -0.33, 12.23 -0.21, 15.1 0 M15.1 0 C17.11 2, 19.86 2.17, 20.14 5.03 M15.1 0 C16.7 0, 20.35 1.52, 20.14 5.03 M20.14 5.03 C19.46 18.71, 20.87 36.66, 20.14 54.58 M20.14 5.03 C21.16 24.11, 19.97 42.55, 20.14 54.58 M20.14 54.58 C19.47 56.02, 19.8 58.33, 15.1 59.61 M20.14 54.58 C20.06 56.39, 18.86 57.95, 15.1 59.61 M15.1 59.61 C11.61 58.81, 9.52 60.21, 5.03 59.61 M15.1 59.61 C11.4 59.39, 7.76 59.25, 5.03 59.61 M5.03 59.61 C3.21 58.91, 1.38 57.16, 0 54.58 M5.03 59.61 C0.2 60.22, -0.9 58.69, 0 54.58 M0 54.58 C1.11 36.69, 0.75 17.04, 0 5.03 M0 54.58 C-0.77 36.86, -0.15 19.88, 0 5.03 M0 5.03 C-1.14 0.71, 0.48 1.34, 5.03 0 M0 5.03 C0.68 3.24, 0.39 0.96, 5.03 0" stroke="#1e1e1e" stroke-width="2" fill="none"></path></g><g stroke-linecap="round" transform="translate(315.6380470174406 328.53786861047917) rotate(0 12.083203147026893 37.05515631754906)"><path d="M6.04 0 C8.69 -1.28, 11.09 -0.71, 18.12 0 C22.42 -1.01, 23.63 2.83, 24.17 6.04 C19.74 27.62, 25.68 51.86, 24.17 68.07 C24.25 70.12, 25.61 75.97, 18.12 74.11 C15.72 73.33, 11.83 74.64, 6.04 74.11 C1.99 74.09, 2.78 71.57, 0 68.07 C-1.92 53.81, 1.09 39.15, 0 6.04 C-0.84 -1.02, -0.08 -3.14, 6.04 0" stroke="none" stroke-width="0" fill="#ffffff"></path><path d="M6.04 0 C8.77 -0.95, 13.72 -1.23, 18.12 0 M6.04 0 C10.64 -0.08, 15.23 0.66, 18.12 0 M18.12 0 C21.88 0.5, 22.64 2.02, 24.17 6.04 M18.12 0 C22.36 -0.16, 24.16 3.53, 24.17 6.04 M24.17 6.04 C24.26 24.78, 25.32 39.97, 24.17 68.07 M24.17 6.04 C24.52 31.31, 24.42 54.61, 24.17 68.07 M24.17 68.07 C25.51 70.82, 22.09 72.77, 18.12 74.11 M24.17 68.07 C24.57 70.44, 21.22 73.47, 18.12 74.11 M18.12 74.11 C13.52 74.67, 10.84 74.18, 6.04 74.11 M18.12 74.11 C15.5 73.67, 12.24 73.85, 6.04 74.11 M6.04 74.11 C3.4 73.34, -1.28 72.63, 0 68.07 M6.04 74.11 C1.11 74.87, 1.65 72.02, 0 68.07 M0 68.07 C0.39 44.79, 0.52 23.49, 0 6.04 M0 68.07 C0.38 47.59, -0.18 28.03, 0 6.04 M0 6.04 C-1.2 3.35, 2.61 1.36, 6.04 0 M0 6.04 C-1.29 2.97, 0.48 -1.28, 6.04 0" stroke="#1e1e1e" stroke-width="2" fill="none"></path></g><g stroke-linecap="round" transform="translate(364.77640648201645 293.8993529223355) rotate(0 12.888750023495334 54.777187599855125)"><path d="M6.44 0 C9.2 -0.46, 16.36 -0.53, 19.33 0 C23.09 0.82, 29.04 -1.34, 25.78 6.44 C26.75 39.27, 24.24 75.38, 25.78 103.11 C29.23 109.27, 22.51 112.72, 19.33 109.55 C14.66 109.83, 9.52 109.44, 6.44 109.55 C4.93 109.02, -1.57 108.23, 0 103.11 C2.15 79.89, -0.03 47.85, 0 6.44 C-2.09 -0.99, 2.03 -2.63, 6.44 0" stroke="none" stroke-width="0" fill="#ffffff"></path><path d="M6.44 0 C11.54 -1.17, 16.18 -0.75, 19.33 0 M6.44 0 C9.29 0.67, 12.92 0.19, 19.33 0 M19.33 0 C22.1 0, 25.96 2.01, 25.78 6.44 M19.33 0 C23.63 1.51, 25.11 0.99, 25.78 6.44 M25.78 6.44 C27.44 30.05, 27.96 54.96, 25.78 103.11 M25.78 6.44 C25.21 40, 26.22 74.83, 25.78 103.11 M25.78 103.11 C25.71 106.07, 23.98 108.11, 19.33 109.55 M25.78 103.11 C24.84 106.77, 24.67 107.54, 19.33 109.55 M19.33 109.55 C17.68 109.8, 13.29 110.12, 6.44 109.55 M19.33 109.55 C16.43 109.24, 12.98 109.22, 6.44 109.55 M6.44 109.55 C0.87 110.09, -0.78 108.06, 0 103.11 M6.44 109.55 C3.8 109.48, 1.48 108.66, 0 103.11 M0 103.11 C0.51 72.14, 0.02 38.74, 0 6.44 M0 103.11 C-0.56 80.58, -0.59 59.69, 0 6.44 M0 6.44 C0.59 3.51, 1.03 0.83, 6.44 0 M0 6.44 C-1.53 0.87, 1.94 -0.53, 6.44 0" stroke="#1e1e1e" stroke-width="2" fill="none"></path></g><g stroke-linecap="round" transform="translate(410.6925784407182 321.28794672226303) rotate(0 10.874882832324147 40.27734382342288)"><path d="M5.44 0 C8.29 -0.5, 10.56 0.49, 16.31 0 C23.2 -3.49, 24.15 -1.53, 21.75 5.44 C22.73 19.25, 26.11 38.87, 21.75 75.12 C20.63 81.91, 22.82 81.95, 16.31 80.55 C13.52 80.57, 12.26 80.3, 5.44 80.55 C0.24 81.38, -1.07 77.08, 0 75.12 C-1.31 47.99, -2.56 23.78, 0 5.44 C-0.12 -0.82, -0.98 3.01, 5.44 0" stroke="none" stroke-width="0" fill="#ffffff"></path><path d="M5.44 0 C8.93 -0.6, 9.82 -0.26, 16.31 0 M5.44 0 C8.38 0.03, 11.06 -0.11, 16.31 0 M16.31 0 C20.12 -0.14, 21.75 3.13, 21.75 5.44 M16.31 0 C19.27 -1.16, 20.4 2.28, 21.75 5.44 M21.75 5.44 C24.25 34.93, 23.4 60.15, 21.75 75.12 M21.75 5.44 C22.19 29.25, 21.48 53.67, 21.75 75.12 M21.75 75.12 C22.1 77.3, 19.13 80, 16.31 80.55 M21.75 75.12 C22.79 76.72, 18 79.72, 16.31 80.55 M16.31 80.55 C12.05 80.99, 8.21 81.56, 5.44 80.55 M16.31 80.55 C14.13 80.31, 10.85 80.66, 5.44 80.55 M5.44 80.55 C1.03 81.21, 1.44 78.68, 0 75.12 M5.44 80.55 C3.29 81.81, 0.61 79.58, 0 75.12 M0 75.12 C0.08 55.39, -1.74 38.13, 0 5.44 M0 75.12 C-0.2 59.79, 0.69 43.81, 0 5.44 M0 5.44 C-1.12 2.65, 0.48 -1.11, 5.44 0 M0 5.44 C-0.21 1.28, 3.61 -0.92, 5.44 0" stroke="#1e1e1e" stroke-width="2" fill="none"></path></g><g transform="translate(281.8050782057651 425.2034937866941) rotate(0 2.7099990844726562 12.5)"><text x="0" y="0" font-family="Virgil, Segoe UI Emoji" font-size="20px" fill="#1e1e1e" text-anchor="start" style="white-space: pre;" direction="ltr" dominant-baseline="text-before-edge">1</text></g><g transform="translate(322.8879689056564 423.5924000337572) rotate(0 7.1199951171875 12.5)"><text x="0" y="0" font-family="Virgil, Segoe UI Emoji" font-size="20px" fill="#1e1e1e" text-anchor="start" style="white-space: pre;" direction="ltr" dominant-baseline="text-before-edge">2</text></g><g transform="translate(372.0263283702327 426.0090406631626) rotate(0 7.649993896484375 12.5)"><text x="0" y="0" font-family="Virgil, Segoe UI Emoji" font-size="20px" fill="#1e1e1e" text-anchor="start" style="white-space: pre;" direction="ltr" dominant-baseline="text-before-edge">8</text></g><g transform="translate(419.55359408187144 428.4256812925679) rotate(0 5.379997253417969 12.5)"><text x="0" y="0" font-family="Virgil, Segoe UI Emoji" font-size="20px" fill="#1e1e1e" text-anchor="start" style="white-space: pre;" direction="ltr" dominant-baseline="text-before-edge">7</text></g><g stroke-linecap="round"><g transform="translate(337.3878126820888 332.1768529693261) rotate(0 36.652382879314814 -0.8055468764684406)"><path d="M-0.08 -0.97 C12.06 -1.51, 59.89 -2.63, 72.29 -2.58 M-1.59 1.13 C10.97 0.66, 61.85 -0.95, 74.48 -1.55" stroke="#1e1e1e" stroke-width="2" fill="none"></path></g></g><mask></mask><g stroke-linecap="round"><g transform="translate(336.5822658056203 403.0649780985504) rotate(0 37.45792975578331 -1.2083203147026893)"><path d="M-1.04 -0.67 C11.35 -0.8, 62.79 -0.74, 75.45 -1.22 M0.61 1.59 C12.8 1.2, 62.52 -1.97, 74.78 -2.72" stroke="#1e1e1e" stroke-width="2" fill="none"></path></g></g><mask></mask><g transform="translate(18.3912496005795 483.6196657453961) rotate(0 189.52984619140625 25)"><text x="0" y="0" font-family="Virgil, Segoe UI Emoji" font-size="20px" fill="#1e1e1e" text-anchor="start" style="white-space: pre;" direction="ltr" dominant-baseline="text-before-edge">bukan malah nyari nilai maksimumnya,</text><text x="0" y="25" font-family="Virgil, Segoe UI Emoji" font-size="20px" fill="#1e1e1e" text-anchor="start" style="white-space: pre;" direction="ltr" dominant-baseline="text-before-edge">jadi tidak bertahap ke nilai heightnya </text></g><g stroke-linecap="round" transform="translate(27.25226524173229 608.8681816215025) rotate(0 10.069335955855763 29.805234429332927)"><path d="M5.03 0 C9.49 -0.32, 10.63 0.79, 15.1 0 C21.57 -1.45, 21.31 0.55, 20.14 5.03 C15.9 23.97, 19.41 38.88, 20.14 54.58 C20 58.99, 17.19 61.38, 15.1 59.61 C11.76 57.84, 6.2 59.34, 5.03 59.61 C-1.7 61.99, -1.21 60.78, 0 54.58 C-3.91 44.71, 1.75 35.39, 0 5.03 C-3.57 -1.88, 0.36 2.92, 5.03 0" stroke="none" stroke-width="0" fill="#ffffff"></path><path d="M5.03 0 C7.83 -0.05, 10.2 0.24, 15.1 0 M5.03 0 C8.11 -0.41, 12.49 -0.27, 15.1 0 M15.1 0 C20.06 -1.71, 19.24 1.04, 20.14 5.03 M15.1 0 C17.34 1.01, 22.37 3.54, 20.14 5.03 M20.14 5.03 C20.53 20.78, 19.17 37.05, 20.14 54.58 M20.14 5.03 C19.57 22.01, 20.27 39.31, 20.14 54.58 M20.14 54.58 C20.88 57.74, 19.62 57.7, 15.1 59.61 M20.14 54.58 C20.91 57.47, 17.66 60.67, 15.1 59.61 M15.1 59.61 C11.78 60.21, 9.67 60.3, 5.03 59.61 M15.1 59.61 C12.09 59.93, 9.25 59.06, 5.03 59.61 M5.03 59.61 C3.43 61.05, 1.91 56.87, 0 54.58 M5.03 59.61 C-0.25 59.26, -1.19 59.8, 0 54.58 M0 54.58 C-1.74 41.3, 0.45 28.59, 0 5.03 M0 54.58 C0.6 45.52, 0.19 33.95, 0 5.03 M0 5.03 C-1.12 1.9, 2.12 1.33, 5.03 0 M0 5.03 C1.61 3.43, -0.41 -0.57, 5.03 0" stroke="#1e1e1e" stroke-width="2" fill="none"></path></g><g stroke-linecap="round" transform="translate(73.1684372004346 592.7572440921333) rotate(0 12.083203147026893 37.05515631754906)"><path d="M6.04 0 C10.11 1.16, 17.36 -0.86, 18.12 0 C23.32 -1.13, 25.43 -0.62, 24.17 6.04 C22.97 20.05, 22.91 33.85, 24.17 68.07 C22.9 73.86, 25.46 77.57, 18.12 74.11 C14.4 73.8, 11.06 75.36, 6.04 74.11 C0.8 76.96, -3.03 74.05, 0 68.07 C3.3 47.56, -2.51 19.06, 0 6.04 C-1.32 4.94, 1.47 -2.32, 6.04 0" stroke="none" stroke-width="0" fill="#ffffff"></path><path d="M6.04 0 C11.89 0.41, 16.27 0.39, 18.12 0 M6.04 0 C9.6 -0.27, 12.56 -0.41, 18.12 0 M18.12 0 C21.26 -0.63, 23.19 2.89, 24.17 6.04 M18.12 0 C24.38 1.86, 25.09 1.76, 24.17 6.04 M24.17 6.04 C23.39 27.32, 25.37 51, 24.17 68.07 M24.17 6.04 C24.33 27.45, 24.33 50.23, 24.17 68.07 M24.17 68.07 C25.32 70.19, 22.82 73.71, 18.12 74.11 M24.17 68.07 C23.36 73.16, 20.95 74.74, 18.12 74.11 M18.12 74.11 C14.04 75.01, 11.01 73.43, 6.04 74.11 M18.12 74.11 C15.91 73.67, 13.79 74.65, 6.04 74.11 M6.04 74.11 C3.93 73.04, -1.68 71.79, 0 68.07 M6.04 74.11 C0.83 75.98, -0.92 70.95, 0 68.07 M0 68.07 C0.82 54.75, -1.33 42.4, 0 6.04 M0 68.07 C-0.14 53.89, -1.01 40.93, 0 6.04 M0 6.04 C0.45 3.34, 3.41 1.52, 6.04 0 M0 6.04 C-2.09 1.44, 2.13 0.97, 6.04 0" stroke="#1e1e1e" stroke-width="2" fill="none"></path></g><g stroke-linecap="round" transform="translate(122.30679666501044 558.1187284039896) rotate(0 12.888750023495334 54.777187599855125)"><path d="M6.44 0 C12.21 -1.05, 14.72 -0.85, 19.33 0 C24.9 -2.63, 22.74 -1.44, 25.78 6.44 C25.6 42.75, 24.47 78.71, 25.78 103.11 C29.09 110.86, 20.31 110.76, 19.33 109.55 C14.43 111.08, 13.1 111.38, 6.44 109.55 C-0.88 111.51, 2.39 103.98, 0 103.11 C-4.65 68.31, -2.4 43.56, 0 6.44 C-0.54 -0.17, -0.77 -1.17, 6.44 0" stroke="none" stroke-width="0" fill="#ffffff"></path><path d="M6.44 0 C10.99 0.38, 13.66 -1.13, 19.33 0 M6.44 0 C9.65 -0.47, 11.54 -0.12, 19.33 0 M19.33 0 C22.65 0.88, 27.72 3.76, 25.78 6.44 M19.33 0 C24.55 -0.26, 27.39 2.66, 25.78 6.44 M25.78 6.44 C26.4 29.2, 26.48 53.17, 25.78 103.11 M25.78 6.44 C26.5 30.27, 26.71 53.34, 25.78 103.11 M25.78 103.11 C26.44 107.01, 22.93 110.48, 19.33 109.55 M25.78 103.11 C24.57 108.04, 23.49 107.67, 19.33 109.55 M19.33 109.55 C14.69 108.84, 8.78 109.65, 6.44 109.55 M19.33 109.55 C14.96 109.9, 10.08 109.1, 6.44 109.55 M6.44 109.55 C0.47 109.25, -1.03 109.03, 0 103.11 M6.44 109.55 C1.23 108.41, -2.05 105.12, 0 103.11 M0 103.11 C-2.05 76.54, -1.71 50.43, 0 6.44 M0 103.11 C-0.86 64.71, -0.08 26.75, 0 6.44 M0 6.44 C1.4 3.67, 0.33 -0.5, 6.44 0 M0 6.44 C0.11 3.12, 4.23 1.75, 6.44 0" stroke="#1e1e1e" stroke-width="2" fill="none"></path></g><g stroke-linecap="round" transform="translate(168.22296862371275 585.5073222039172) rotate(0 10.874882832324204 40.27734382342288)"><path d="M5.44 0 C9.91 -0.53, 13.79 -1.35, 16.31 0 C16.9 -3.59, 24.08 1.73, 21.75 5.44 C20.43 29.33, 25.01 53.15, 21.75 75.12 C18.43 79.94, 16.75 78.55, 16.31 80.55 C12.45 82.23, 8.26 81.75, 5.44 80.55 C4.2 77.12, 0.83 80.98, 0 75.12 C-0.08 52.85, 0.7 22.42, 0 5.44 C-2.92 0.64, 0.44 0.9, 5.44 0" stroke="none" stroke-width="0" fill="#ffffff"></path><path d="M5.44 0 C8.53 -0.95, 11.71 0.94, 16.31 0 M5.44 0 C7.77 -0.08, 10.32 0.33, 16.31 0 M16.31 0 C21.88 1.62, 22.55 1.59, 21.75 5.44 M16.31 0 C21.55 0.51, 20.49 0.76, 21.75 5.44 M21.75 5.44 C23.26 19.85, 21.07 36.34, 21.75 75.12 M21.75 5.44 C22.59 20.27, 22.34 36.8, 21.75 75.12 M21.75 75.12 C21.05 79.67, 18.89 81.11, 16.31 80.55 M21.75 75.12 C21.61 76.86, 21.32 79.54, 16.31 80.55 M16.31 80.55 C11.23 80.49, 9.19 80.87, 5.44 80.55 M16.31 80.55 C14.54 80.34, 11.27 80.55, 5.44 80.55 M5.44 80.55 C0.78 82.18, -0.8 77.75, 0 75.12 M5.44 80.55 C-0.24 78.27, -0.46 78.98, 0 75.12 M0 75.12 C-0.93 56.48, 2.65 35.57, 0 5.44 M0 75.12 C0.61 58.7, 1.09 41.71, 0 5.44 M0 5.44 C-1.82 1.32, 1.91 0.85, 5.44 0 M0 5.44 C2.08 3.57, 1.62 -0.69, 5.44 0" stroke="#1e1e1e" stroke-width="2" fill="none"></path></g><g transform="translate(39.33546838875952 689.4228692683482) rotate(0 2.7099990844726562 12.5)"><text x="0" y="0" font-family="Virgil, Segoe UI Emoji" font-size="20px" fill="#1e1e1e" text-anchor="start" style="white-space: pre;" direction="ltr" dominant-baseline="text-before-edge">1</text></g><g transform="translate(80.41835908865085 687.8117755154113) rotate(0 7.1199951171875 12.5)"><text x="0" y="0" font-family="Virgil, Segoe UI Emoji" font-size="20px" fill="#1e1e1e" text-anchor="start" style="white-space: pre;" direction="ltr" dominant-baseline="text-before-edge">2</text></g><g transform="translate(129.5567185532267 690.2284161448167) rotate(0 7.649993896484375 12.5)"><text x="0" y="0" font-family="Virgil, Segoe UI Emoji" font-size="20px" fill="#1e1e1e" text-anchor="start" style="white-space: pre;" direction="ltr" dominant-baseline="text-before-edge">8</text></g><g transform="translate(177.08398426486553 693.4506036506905) rotate(0 5.379997253417969 12.5)"><text x="0" y="0" font-family="Virgil, Segoe UI Emoji" font-size="20px" fill="#1e1e1e" text-anchor="start" style="white-space: pre;" direction="ltr" dominant-baseline="text-before-edge">7</text></g><g stroke-linecap="round" transform="translate(44.97429652403855 609.2849784744756) rotate(0 62.42988292630548 0.4027734382342203)"><path d="M0.2 0 C38.02 -0.85, 75.6 2.45, 124.66 0 C127.29 -2.39, 125.73 -2.23, 124.86 0.2 C124.89 0.28, 124.9 0.35, 124.86 0.6 C126.27 2.46, 122.32 1.41, 124.66 0.81 C77.02 -1.75, 36.64 -1.19, 0.2 0.81 C-1.61 -1.3, -0.84 -0.26, 0 0.6 C-0.04 0.46, 0.04 0.38, 0 0.2 C1.33 -1.93, 1.02 -1.73, 0.2 0" stroke="none" stroke-width="0" fill="#ffffff"></path><path d="M0.2 0 C32.4 1.27, 64.53 0.7, 124.66 0 M0.2 0 C35.88 -0.37, 71.69 0.13, 124.66 0 M124.66 0 C124.32 0.57, 124.52 -0.46, 124.86 0.2 M124.66 0 C125.22 -0.85, 125.29 -0.04, 124.86 0.2 M124.86 0.2 C124.85 0.34, 124.87 0.48, 124.86 0.6 M124.86 0.2 C124.87 0.33, 124.87 0.47, 124.86 0.6 M124.86 0.6 C124.23 -0.25, 124.8 1.63, 124.66 0.81 M124.86 0.6 C125.27 -0.28, 125.8 1.64, 124.66 0.81 M124.66 0.81 C75.27 -0.23, 27.01 -0.12, 0.2 0.81 M124.66 0.81 C93.41 0.24, 62.3 -0.3, 0.2 0.81 M0.2 0.81 C0.32 0, 0.73 1.72, 0 0.6 M0.2 0.81 C0.43 0.17, -0.64 0.86, 0 0.6 M0 0.6 C0.01 0.46, -0.01 0.35, 0 0.2 M0 0.6 C0 0.46, 0 0.34, 0 0.2 M0 0.2 C-0.4 0.39, -0.25 0.35, 0.2 0 M0 0.2 C-0.84 -0.9, -1.08 0.74, 0.2 0" stroke="#1e1e1e" stroke-width="2" fill="none"></path></g><g stroke-linecap="round"><g transform="translate(46.585390276975545 665.6732598272677) rotate(0 60.81878917336854 0)"><path d="M1.16 0.97 C21.61 0.86, 101.9 -0.02, 122.12 -0.13 M0.32 0.43 C20.7 0.47, 101.11 1.12, 121.42 1.33" stroke="#1e1e1e" stroke-width="2" fill="none"></path></g></g><mask></mask><g stroke-linecap="round" transform="translate(276.9717969469541 604.0349003626918) rotate(0 10.069335955855763 29.805234429332927)"><path d="M5.03 0 C9.37 1.46, 12.32 -1.17, 15.1 0 C19.21 2.08, 18.46 0.96, 20.14 5.03 C20.94 24.16, 16.19 41.27, 20.14 54.58 C19.38 60.12, 15.52 57.36, 15.1 59.61 C11.43 58.79, 7.68 58.22, 5.03 59.61 C5.23 63.16, 2.93 55.69, 0 54.58 C1.58 41.22, -2.44 31.9, 0 5.03 C3.24 -1.18, 0.82 -1.5, 5.03 0" stroke="none" stroke-width="0" fill="#ffffff"></path><path d="M5.03 0 C7.78 0.61, 9.81 0, 15.1 0 M5.03 0 C7.4 0.15, 10.22 -0.01, 15.1 0 M15.1 0 C16.94 1.45, 18.43 2.89, 20.14 5.03 M15.1 0 C17.75 0.93, 21.09 1.25, 20.14 5.03 M20.14 5.03 C20.81 18.64, 19.76 32.75, 20.14 54.58 M20.14 5.03 C20.59 19.51, 19.85 35.48, 20.14 54.58 M20.14 54.58 C18.16 57.16, 19.52 57.74, 15.1 59.61 M20.14 54.58 C21.19 56.17, 20.74 60.87, 15.1 59.61 M15.1 59.61 C11.76 59.18, 8.05 60.27, 5.03 59.61 M15.1 59.61 C11.09 60.06, 8.16 59.45, 5.03 59.61 M5.03 59.61 C1.05 58.47, 0.54 55.97, 0 54.58 M5.03 59.61 C3.8 58.18, 0.56 57.71, 0 54.58 M0 54.58 C1.08 39.03, 0.04 21.04, 0 5.03 M0 54.58 C-0.35 36.22, 0.2 17.23, 0 5.03 M0 5.03 C-0.8 1.73, 1.01 -0.52, 5.03 0 M0 5.03 C1.37 2.27, -0.33 0.49, 5.03 0" stroke="#1e1e1e" stroke-width="2" fill="none"></path></g><g stroke-linecap="round" transform="translate(322.8879689056564 587.9239628333227) rotate(0 12.083203147026893 37.05515631754906)"><path d="M6.04 0 C8.5 -1.73, 11.84 1.1, 18.12 0 C20.47 -0.72, 27.14 -0.49, 24.17 6.04 C21.27 22.82, 23.85 45.15, 24.17 68.07 C21.23 69.85, 21.59 74.54, 18.12 74.11 C12.4 72.33, 12.89 76.15, 6.04 74.11 C4.94 71.87, -1.88 69.98, 0 68.07 C-3.3 53.85, 2.92 33.02, 0 6.04 C-0.86 0.51, -0.71 1.49, 6.04 0" stroke="none" stroke-width="0" fill="#ffffff"></path><path d="M6.04 0 C9.84 -0.03, 14.01 -0.98, 18.12 0 M6.04 0 C9.46 -0.05, 12.9 0.4, 18.12 0 M18.12 0 C20.45 1.21, 23.55 2.82, 24.17 6.04 M18.12 0 C23.1 -0.43, 23.73 1.35, 24.17 6.04 M24.17 6.04 C24.19 18.76, 24.54 30.02, 24.17 68.07 M24.17 6.04 C24.87 18.76, 23.73 30.83, 24.17 68.07 M24.17 68.07 C25.22 70.22, 23.07 72.58, 18.12 74.11 M24.17 68.07 C26.44 73.36, 23.36 72.64, 18.12 74.11 M18.12 74.11 C15.29 74.93, 12.97 73.25, 6.04 74.11 M18.12 74.11 C14.42 73.99, 10.2 73.87, 6.04 74.11 M6.04 74.11 C2.56 72.15, 1.85 70.85, 0 68.07 M6.04 74.11 C2.57 73.89, 0.61 73.65, 0 68.07 M0 68.07 C-0.06 46.85, 1.03 29.65, 0 6.04 M0 68.07 C0.56 51.3, -0.43 35.22, 0 6.04 M0 6.04 C-0.67 1.49, 3.2 0.52, 6.04 0 M0 6.04 C-2 2.51, 3.64 -0.78, 6.04 0" stroke="#1e1e1e" stroke-width="2" fill="none"></path></g><g stroke-linecap="round" transform="translate(372.02632837023225 553.285447145179) rotate(0 12.888750023495334 54.777187599855125)"><path d="M6.44 0 C11.73 1.51, 14.97 -0.29, 19.33 0 C26.61 -2.51, 25.69 3.57, 25.78 6.44 C23.41 38.09, 21.23 63.1, 25.78 103.11 C25.22 107.83, 23.82 107.94, 19.33 109.55 C18.35 111.66, 14.67 107.93, 6.44 109.55 C0.27 107.43, -1.46 108.47, 0 103.11 C4.68 74.13, 0.58 49.36, 0 6.44 C-2.73 3.64, 1.34 -1.3, 6.44 0" stroke="none" stroke-width="0" fill="#ffffff"></path><path d="M6.44 0 C10.73 -0.97, 15.91 -0.84, 19.33 0 M6.44 0 C10.22 0.47, 14.42 0.39, 19.33 0 M19.33 0 C23.01 0.81, 26.6 1.78, 25.78 6.44 M19.33 0 C23.2 -0.66, 23.65 3.08, 25.78 6.44 M25.78 6.44 C25.78 32.11, 23.72 63.07, 25.78 103.11 M25.78 6.44 C24.93 28.48, 26.45 50.35, 25.78 103.11 M25.78 103.11 C26.69 105.88, 25.61 110.65, 19.33 109.55 M25.78 103.11 C26.98 105.94, 22.23 110.03, 19.33 109.55 M19.33 109.55 C16.61 108.77, 12.81 108.45, 6.44 109.55 M19.33 109.55 C14.17 109.14, 9.59 108.88, 6.44 109.55 M6.44 109.55 C4 108.31, 0.48 107.21, 0 103.11 M6.44 109.55 C2.75 111.11, 0.52 109.04, 0 103.11 M0 103.11 C1.29 72.7, -0.88 39.17, 0 6.44 M0 103.11 C-0.98 72.6, -0.91 41.78, 0 6.44 M0 6.44 C1.19 2.67, 0.41 0.43, 6.44 0 M0 6.44 C1.62 1.37, 0.34 0.77, 6.44 0" stroke="#1e1e1e" stroke-width="2" fill="none"></path></g><g stroke-linecap="round" transform="translate(417.94250032893444 580.6740409451065) rotate(0 10.874882832324147 40.27734382342288)"><path d="M5.44 0 C7 -0.5, 12 -1.48, 16.31 0 C19.85 1.42, 21.92 -1.52, 21.75 5.44 C18.55 20.83, 20.93 41.16, 21.75 75.12 C21.94 77.13, 18.28 77.19, 16.31 80.55 C15.48 79.53, 10.45 79.59, 5.44 80.55 C0.35 81.61, -1.07 75.77, 0 75.12 C-1.99 49.07, -3.86 27.51, 0 5.44 C-0.81 0.51, 3.57 2.25, 5.44 0" stroke="none" stroke-width="0" fill="#ffffff"></path><path d="M5.44 0 C8.78 -0.62, 12.39 -0.34, 16.31 0 M5.44 0 C8.22 0.25, 11.76 0.14, 16.31 0 M16.31 0 C20.76 -0.37, 21.37 1.24, 21.75 5.44 M16.31 0 C17.81 0.94, 21.37 1.55, 21.75 5.44 M21.75 5.44 C19.85 27.62, 20.43 46.53, 21.75 75.12 M21.75 5.44 C21.59 26.35, 21.52 48.36, 21.75 75.12 M21.75 75.12 C23.73 79.84, 20.98 79.28, 16.31 80.55 M21.75 75.12 C20.35 79.22, 19.09 80.65, 16.31 80.55 M16.31 80.55 C12.49 79.47, 9.15 80.78, 5.44 80.55 M16.31 80.55 C13.59 79.96, 11.08 80.15, 5.44 80.55 M5.44 80.55 C2.3 80.36, 0.53 80.1, 0 75.12 M5.44 80.55 C2.33 82.19, 0.72 79.18, 0 75.12 M0 75.12 C-1.21 58.51, -0.2 42.9, 0 5.44 M0 75.12 C-0.05 56.25, 0.87 38.16, 0 5.44 M0 5.44 C-1.74 2.24, 3.22 -0.68, 5.44 0 M0 5.44 C-1.81 2.58, 3.49 -0.23, 5.44 0" stroke="#1e1e1e" stroke-width="2" fill="none"></path></g><g transform="translate(289.05500009398133 684.5895880095377) rotate(0 2.7099990844726562 12.5)"><text x="0" y="0" font-family="Virgil, Segoe UI Emoji" font-size="20px" fill="#1e1e1e" text-anchor="start" style="white-space: pre;" direction="ltr" dominant-baseline="text-before-edge">1</text></g><g transform="translate(330.13789079387266 682.9784942566007) rotate(0 7.1199951171875 12.5)"><text x="0" y="0" font-family="Virgil, Segoe UI Emoji" font-size="20px" fill="#1e1e1e" text-anchor="start" style="white-space: pre;" direction="ltr" dominant-baseline="text-before-edge">2</text></g><g transform="translate(379.2762502584485 685.3951348860062) rotate(0 7.649993896484318 12.5)"><text x="0" y="0" font-family="Virgil, Segoe UI Emoji" font-size="20px" fill="#1e1e1e" text-anchor="start" style="white-space: pre;" direction="ltr" dominant-baseline="text-before-edge">8</text></g><g transform="translate(426.80351597008723 688.61732239188) rotate(0 5.379997253417969 12.5)"><text x="0" y="0" font-family="Virgil, Segoe UI Emoji" font-size="20px" fill="#1e1e1e" text-anchor="start" style="white-space: pre;" direction="ltr" dominant-baseline="text-before-edge">7</text></g><g stroke-linecap="round" transform="translate(297.11046885866585 604.4516972156649) rotate(0 36.652382879314814 1.2083203147026893)"><path d="M0.6 0 C17.14 -1.92, 28.89 -0.21, 72.7 0 C73.41 0.14, 72.14 -0.99, 73.3 0.6 C73.45 0.98, 73.19 1.02, 73.3 1.81 C71.77 1.16, 73.87 1.64, 72.7 2.42 C54.95 2.64, 40.24 1.29, 0.6 2.42 C1.28 1.83, -0.94 3.48, 0 1.81 C0.13 1.38, 0.01 1.02, 0 0.6 C-0.01 -0.78, -1.52 -1.29, 0.6 0" stroke="none" stroke-width="0" fill="#ffffff"></path><path d="M0.6 0 C16.5 0.52, 31.39 -0.08, 72.7 0 M0.6 0 C20.08 -0.2, 39.68 -0.12, 72.7 0 M72.7 0 C72.23 -0.97, 74.2 -0.48, 73.3 0.6 M72.7 0 C73.28 0.16, 72.17 -0.25, 73.3 0.6 M73.3 0.6 C73.25 1.09, 73.33 1.49, 73.3 1.81 M73.3 0.6 C73.29 0.89, 73.32 1.19, 73.3 1.81 M73.3 1.81 C72.63 2.42, 72.17 3.26, 72.7 2.42 M73.3 1.81 C73.62 1.8, 72.74 1.76, 72.7 2.42 M72.7 2.42 C48.49 2.99, 25.43 3.01, 0.6 2.42 M72.7 2.42 C46.35 2.77, 19.38 3.04, 0.6 2.42 M0.6 2.42 C1 2.07, 0.05 2.37, 0 1.81 M0.6 2.42 C0.88 2.04, -0.46 2.24, 0 1.81 M0 1.81 C0.02 1.44, 0.01 1.21, 0 0.6 M0 1.81 C0.03 1.49, -0.02 1.18, 0 0.6 M0 0.6 C0.58 -0.27, 0 0.83, 0.6 0 M0 0.6 C-0.8 0.17, 0.66 0.05, 0.6 0" stroke="#1e1e1e" stroke-width="2" fill="none"></path></g><g stroke-linecap="round"><g transform="translate(296.30492198219736 660.8399785684569) rotate(0 38.26347663225175 -0.4027734382342203)"><path d="M0.5 -0.22 C13.27 -0.5, 63.81 -1.13, 76.3 -1.15 M-0.7 -1.39 C11.93 -1.53, 62.16 0.38, 75.23 0.21" stroke="#1e1e1e" stroke-width="2" fill="none"></path></g></g><mask></mask></svg>